<svg version="1" xmlns="http://www.w3.org/2000/svg" width="933.333" height="933.333" viewBox="0 0 700.000000 700.000000"><path d="M573.1 31.5c-31.7 17.9-29.9 16.7-27.2 17.7 1.3.4 3.7 1 5.4 1.3 1.8.3 4.9 1 7 1.6l3.7 1V78h17.2l-.4 10.5-.4 10.5 5 .1c12.7.3 14.8.9 14.2 4.1-.3 1.3-.5 2.8-.5 3.5-.1.6-1.3 1.6-2.8 2.2-1.6.5-6.6 3.1-11.3 5.7-4.7 2.6-12.6 6.9-17.7 9.6l-9.2 4.9v-8.8c.1-14.5 1-13-7.8-12.8-4.3 0-8.3 0-8.8-.2-.7-.2-1-4.4-1-10.8 0-6.3-.4-10.6-1-10.8-.5-.2-3.7-.5-7-.6-3.3-.2-6.2-.4-6.6-.6-.3-.2-.5-6.2-.5-13.4.1-8.3-.3-12.7-.9-12.3-.9.5-27.7 17.8-42.7 27.5-2.6 1.6-4.6 3.3-4.4 3.6 2.1 3.9 27.3 46.3 28.7 48.3 1.4 2 1.5 2.8.6 3.6-1.7 1.4-15.9 9.5-50.7 29-38.9 21.8-58.5 32.2-60.9 32.2-.7 0-.6-.8.3-2.3 2.6-3.8 6.5-15.3 7.2-20.9.7-5.9.7-26.5-.1-32.5-1.5-12-5.7-25.1-9.7-30.2-1-1.3-1.8-2.8-1.8-3.2 0-.9-2.8-4.3-8-9.8-12.1-12.6-35.3-22.4-55.8-23.4-16.9-.9-35.4 4.2-49 13.5-13.9 9.5-29.3 31-32.6 45.8-.3 1.4-2.7 4.8-5.4 7.6-8.5 9.2-20 22.7-25.9 30.5-3.2 4.2-9.1 11.9-13.2 17.3-4 5.3-7.7 9.9-8.2 10.2-.5.3-.9 1-.9 1.6 0 .6 1.1.3 2.4-.6 1.4-.8 4-2.4 5.8-3.5 1.8-1 11.6-6.7 21.7-12.5 11.3-6.6 18.8-10.3 19.3-9.8s1 10.5 1 22.1V224l8-4.3 8-4.4 8.7 6.4c15.5 11.6 26.6 16.4 45.6 19.7 4.8.9 9 1.8 9.3 2 1.2 1.3-1.2 3.7-7.5 7.1-3.7 2.1-8.1 4.6-9.8 5.5-1.6 1-12 6.8-23 13s-21.2 12.1-22.7 13.1c-1.4 1.1-2.9 1.9-3.2 1.9-.3 0-9.2 5-19.8 11.1-26.2 15.2-29.5 16.9-32.9 17.9-2.9.9-2.9.8-3-3.3-.2-5.2-.7-9.8-1.2-10.3-.9-.9-13.7 10.8-13.8 12.6-.1 1.1-.2 2.6-.3 3.2 0 .7-1.2 1.3-2.6 1.3-2.2 0-2.7-.7-4.4-6.8-1.1-3.7-2.4-6.7-2.9-6.7-.8 0-5.8 4.2-17.3 14.5-3.7 3.3-20.2 18.5-23 21.2-2.9 2.8-6.4 10.9-6.4 15 0 .7-1.7 2.1-3.7 3.1-8.2 4-45 24.8-66.3 37.5-19.8 11.8-25.3 18.6-25.3 31.6-.2 21 14.3 35.1 36.1 35.1 8.5 0 10.2-.8 44.5-19.9 41.5-23.2 52.6-29.6 82.7-47.6 16.8-10 33.2-19.7 36.5-21.5 22.1-12.1 31.2-17.2 32.5-18 .8-.6 2.1-1.3 2.9-1.7.7-.3 12.2-6.6 25.4-13.9 13.2-7.4 24.1-13.3 24.3-13.1.1.1 3.3 5.8 7.1 12.7 10.9 19.5 11.6 20.8 18.8 33.5 3.7 6.6 8.2 14.8 10.1 18.1 1.9 3.4 5.4 9.7 7.9 14l4.5 7.9-12.4 12c-6.8 6.6-16.1 15.6-20.7 20-4.7 4.4-16.3 15.5-25.9 24.7-9.6 9.1-20 19-23.1 22-6.5 6-35 33.2-41.4 39.3-2.3 2.2-11.7 11.2-21 20-9.2 8.8-17.4 16.6-18.1 17.3-1.1 1.1-.1 2.6 6.3 8.7 4.3 4.1 7.5 7.5 7.2 7.7-.2.2-3.6 3.4-7.5 7.1l-7.1 6.8-23.9-6.1c-13.1-3.4-24.6-6.3-25.4-6.5l-16-4-16-4c-.8-.2-3.1-.9-5-1.4-1.9-.6-4.1-1.1-4.8-1.1-.8 0 9 10.5 21.6 23.2 12.6 12.8 28 28.5 34.2 34.8 26.9 27.6 52.3 53 52.9 53 .4 0 11.9-11.5 25.6-25.5l24.9-25.6 8.6 8.6c4.7 4.7 8.9 8.5 9.3 8.5.4 0 12.6-11.8 27-26.3 22-21.9 44.9-44.1 58.3-56.4 7.5-6.8 31.9-30 33.3-31.6.8-.9 2-1.7 2.6-1.6.5 0 2.9 2.6 5.1 5.7 8.7 11.9 25.6 33.7 26.7 34.3 1 .6 30.6 5.8 42.2 7.4 2.2.4 4.7.8 5.5 1 .8.3 3.2.7 5.4 1.1 2.1.3 4.8.8 6 1 1.1.2 3.7.7 5.6 1 1.9.3 8.2 1.4 14 2.4 5.8 1 12.1 2.1 14 2.4 1.9.3 10.3 1.7 18.5 3.1 8.3 1.5 19.6 3.4 25.3 4.4l10.2 1.7v-12.5l6.3.3c3.4.2 7.8.4 9.8.5l3.5.1 4.7 11.7c5 12.9 14.1 36.2 23.3 60 3.2 8.4 6.1 15.3 6.4 15.3.3 0 2.7-11.1 5.4-24.8 2.7-13.6 7.7-39.1 11.2-56.7 3.5-17.6 6.5-33.4 6.8-35 .3-1.7 1.5-7.5 2.6-13 4.5-21.7 4.5-20.8-1-21.6-2.5-.4-6.1-.9-8-1.2-1.9-.3-7.3-1.1-12-1.7-4.7-.6-9.6-1.3-11-1.5-1.4-.2-4.5-.6-7-1-2.5-.3-6.1-.8-8-1-1.9-.3-5.3-.8-7.5-1-7-.9-9.4-1.6-9-2.8.2-.7.6-2.8.9-4.7.3-1.9.8-5.4 1.2-7.8.3-2.3.2-4.2-.2-4.1-.5.1-2-.1-3.4-.4-2.6-.6-32.5-7.2-37-8.1-4.7-.9-17.2-3.7-23.3-5.1-3.3-.8-6.4-2-6.9-2.7-.4-.7-6.6-9.4-13.7-19.3-12-16.7-12.8-18.1-11.3-19.6 4.8-4.5 25.7-27.2 25.5-27.8-.1-.3-4.8-8.9-10.6-19.1-5.7-10.2-11.9-21.2-13.7-24.5-12.7-22.9-25.2-45.2-26-46.5-.6-.8-1.3-2.2-1.7-3-.4-.8-3.3-6.1-6.5-11.7-3.2-5.7-5.8-10.6-5.8-10.9 0-.3 1.9-.3 4.3 0 2.3.4 6 .9 8.2 1.1 2.2.3 6.5 1 9.5 1.5s7.1 1.2 9 1.4c3.4.5 21.9 3.3 27 4.1 3.2.5 10.7 1.6 14.4 2.1 1.6.2 3.3.7 3.7 1.1 1.5 1.7 26.9 81.4 26.3 82.6-.4.6-3.9 5.5-7.9 10.7-9.9 13.1-9.6 12.3-3.9 11.6 2.7-.3 7.6-.8 10.9-1.2 3.3-.3 6.7-.8 7.6-.9 2.7-.5 3.6.7 6.4 8.7 1.5 4.3 3 7.8 3.4 7.8.3 0 9.6-4.9 20.5-10.9l19.9-10.9 3.3-9.3c1.8-5.2 5.4-15.8 8.2-23.6l4.9-14.3-7.5-2.2-7.4-2.3-1.8-5c-1-2.8-9.1-27.1-18-54-8.9-27-16.3-49.1-16.4-49.1-.2-.2-29.2-6.2-33.6-6.9-1.9-.3-5.1-1-7-1.5-1.9-.5-4.6-1.1-6-1.4-11.9-2.1-54.8-11-55.9-11.6-.9-.5-.1-1.3 2.8-2.8 2.3-1.2 10.1-5.6 17.5-9.7s13.6-7.5 13.9-7.5c.2 0 5.7-3.1 12.3-6.8 6.5-3.8 15.3-8.7 19.4-10.9 30.9-16.7 82-45.5 88.7-50 10.2-6.8 19.3-15.4 22.3-21.3 3.1-6 3.3-18.3.5-25-3.5-8.3-16.2-32.9-17.6-34-.3-.3-1.2-1.6-1.9-3-2-3.9-16.9-24.9-21.8-30.8l-4.4-5.2H593.5l-20.4 11.5zM145.5 383.7c1.8 2 2.5 3.7 2.3 5.7-.3 2.7-2.3 4.1-27.3 18.3-14.8 8.5-27.7 15.7-28.5 16-.8.4-4.4 2.4-8 4.4-9.3 5.3-10.2 5.4-13.9 2.3-3.8-3.1-4.1-7.1-.8-10.1 1.9-1.7 8.7-5.8 25.2-14.8 13.3-7.3 24.6-13.6 28.5-15.8 2.5-1.3 7-3.9 10-5.6 6.8-3.8 9.2-3.9 12.5-.4z"/></svg>